<svg xmlns="http://www.w3.org/2000/svg" viewBox="0 0 32 32" fill="none">
  <rect width="32" height="32" rx="7" fill="#1F3B2D"/>
  <path d="M9 14h14l-1.5 8.5a1 1 0 0 1-1 .5H11.5a1 1 0 0 1-1-.5L9 14z" fill="#F2EDE3"/>
  <path d="M23 16.5c1.5 0 2.5 1 2.5 2.5s-1 2.5-2.5 2.5" stroke="#F2EDE3" stroke-width="1.5" stroke-linecap="round" fill="none"/>
  <path d="M7.5 22.5h17" stroke="#F2EDE3" stroke-width="1.5" stroke-linecap="round"/>
  <path d="M13 11.5 C13 10.5 14 10 14 9 C14 8 13 7.5 13 6.5" stroke="#8B5E34" stroke-width="1.2" stroke-linecap="round" fill="none"/>
  <path d="M16 12 C16 11 17 10.5 17 9.5 C17 8.5 16 8 16 7" stroke="#8B5E34" stroke-width="1.2" stroke-linecap="round" fill="none"/>
  <path d="M19 11.5 C19 10.5 20 10 20 9 C20 8 19 7.5 19 6.5" stroke="#8B5E34" stroke-width="1.2" stroke-linecap="round" fill="none"/>
</svg>
